# xmcd
#
# Track frame offsets: 
#        150
#        10269
#        25334
#        36179
#        41994
#        52444
#        66332
#        84252
#        96031
#        110051
#        122326
#        134268
#        149290
#        163513
#        179062
#        189488
#        206645
#        224909
#        234848
#        253328
#        263641
#        277298
#        289381
#        306754
#        317826
#        332591
#        338148
#
# Disc length: 4689 seconds
#
# Revision: 0
# Processed by: cddbd v1.5.2PL0 Copyright (c) Steve Scherf et al.
# Submitted via: ExactAudioCopy v1.0b4
#
DISCID=af124f1b
DTITLE=Various Artist - ORPHEE NACHT MUSIK VOL. 2
DYEAR=2016
DGENRE=Folk/Rock
TTITLE0=Joachim Kemmer - Sei hier Gast
TTITLE1=Louis Armstrong - Mack the Knife
TTITLE2=Humphrey Bogart Ingrid Bergmann Dooley Wilson - Play it Sam...
TTITLE2=Play As Time Goes By
TTITLE3=Dooley Wilson - Knock On Wood
TTITLE4=Serge Gainsbourg - Hold-Up
TTITLE5=Charles Aznavour and Eddith Piaf - Plus bleu que tes yeux
TTITLE6=Sexion d´Assaut - Paris va bien
TTITLE7=Teddy Parker - Nachtexpress nach St. Tropez
TTITLE8=The Blue Diamonds - Sukiyaki (German Version)
TTITLE9=Johnny Nash - I Can See Clearly Now
TTITLE10=Pat Boone - Speedy Gonzales
TTITLE11=Gabrielle - Walk On By
TTITLE12=Wilson Pickett - Mustang Sally
TTITLE13=Joan Osborne Jan Moss and Jimmy Barnes - What Becomes Of The Br
TTITLE13=oken Hearted
TTITLE14=Herb Alpert - The Lonely Bull
TTITLE15=Buena Vista Social Club - Quizas, Quizas (Live)
TTITLE16=Al Martino - Spanish Eyes
TTITLE17=Marinechor der Schwarzmeerflotte - Moskauer Nächte
TTITLE18=Gilbert Becaud - Nathalie (Version allemande)
TTITLE19=Lale Andersen - Warum Hat der Napoleon
TTITLE20=Arik Brauer - Gemma, Gemma
TTITLE21=Toni Goth - Salzburger Menuett
TTITLE22=Scott Fitzgerald and Kiki Dee - If I Had Words
TTITLE23=Louis Armstrong and Gabriele Clonisch - Uncle Satchmo´s Lullaby
TTITLE24=Liza Minnelli - Theme From New York, New York
TTITLE25=Ralph Burns - Theme From New York, New York (Orchestral Repri
TTITLE25=se)
TTITLE26=Nina Hagen and The Capital Dance Orchestra - Yes, Sir
EXTD=
EXTT0=
EXTT1=
EXTT2=
EXTT3=
EXTT4=
EXTT5=
EXTT6=
EXTT7=
EXTT8=
EXTT9=
EXTT10=
EXTT11=
EXTT12=
EXTT13=
EXTT14=
EXTT15=
EXTT16=
EXTT17=
EXTT18=
EXTT19=
EXTT20=
EXTT21=
EXTT22=
EXTT23=
EXTT24=
EXTT25=
EXTT26=
PLAYORDER=
